<mxfile host="app.diagrams.net" modified="2022-09-20T09:03:55.894Z" agent="5.0 (Windows NT 10.0; Win64; x64) AppleWebKit/537.36 (KHTML, like Gecko) Chrome/105.0.0.0 Safari/537.36" etag="GrY1sGqpOhjD4Qq_e2Zh" version="20.0.4" type="github">
  <diagram id="hWaxQHyh-eLtnBe6su21" name="Page-1">
    <mxGraphModel dx="1342" dy="574" grid="1" gridSize="10" guides="1" tooltips="1" connect="1" arrows="1" fold="1" page="1" pageScale="1" pageWidth="1169" pageHeight="827" math="0" shadow="0">
      <root>
        <mxCell id="0" />
        <mxCell id="1" parent="0" />
        <mxCell id="OfoO1cSh_xcKWQXZHYi1-1" value="Notion Database" style="shape=datastore;whiteSpace=wrap;html=1;" vertex="1" parent="1">
          <mxGeometry x="801" y="199" width="280" height="250" as="geometry" />
        </mxCell>
        <mxCell id="OfoO1cSh_xcKWQXZHYi1-2" value="Tasks Pending Approval" style="swimlane;fontStyle=0;childLayout=stackLayout;horizontal=1;startSize=26;fillColor=none;horizontalStack=0;resizeParent=1;resizeParentMax=0;resizeLast=0;collapsible=1;marginBottom=0;" vertex="1" parent="1">
          <mxGeometry x="406" y="119" width="155" height="78" as="geometry" />
        </mxCell>
        <mxCell id="OfoO1cSh_xcKWQXZHYi1-3" value="Item 1" style="text;strokeColor=none;fillColor=none;align=left;verticalAlign=top;spacingLeft=4;spacingRight=4;overflow=hidden;rotatable=0;points=[[0,0.5],[1,0.5]];portConstraint=eastwest;" vertex="1" parent="OfoO1cSh_xcKWQXZHYi1-2">
          <mxGeometry y="26" width="155" height="26" as="geometry" />
        </mxCell>
        <mxCell id="OfoO1cSh_xcKWQXZHYi1-4" value="Item 2" style="text;strokeColor=none;fillColor=none;align=left;verticalAlign=top;spacingLeft=4;spacingRight=4;overflow=hidden;rotatable=0;points=[[0,0.5],[1,0.5]];portConstraint=eastwest;" vertex="1" parent="OfoO1cSh_xcKWQXZHYi1-2">
          <mxGeometry y="52" width="155" height="26" as="geometry" />
        </mxCell>
        <mxCell id="OfoO1cSh_xcKWQXZHYi1-5" value="Tasks Pending Deletion" style="swimlane;fontStyle=0;childLayout=stackLayout;horizontal=1;startSize=26;fillColor=none;horizontalStack=0;resizeParent=1;resizeParentMax=0;resizeLast=0;collapsible=1;marginBottom=0;" vertex="1" parent="1">
          <mxGeometry x="401" y="439" width="160" height="78" as="geometry" />
        </mxCell>
        <mxCell id="OfoO1cSh_xcKWQXZHYi1-6" value="Item 1" style="text;strokeColor=none;fillColor=none;align=left;verticalAlign=top;spacingLeft=4;spacingRight=4;overflow=hidden;rotatable=0;points=[[0,0.5],[1,0.5]];portConstraint=eastwest;" vertex="1" parent="OfoO1cSh_xcKWQXZHYi1-5">
          <mxGeometry y="26" width="160" height="26" as="geometry" />
        </mxCell>
        <mxCell id="OfoO1cSh_xcKWQXZHYi1-7" value="Item 2" style="text;strokeColor=none;fillColor=none;align=left;verticalAlign=top;spacingLeft=4;spacingRight=4;overflow=hidden;rotatable=0;points=[[0,0.5],[1,0.5]];portConstraint=eastwest;" vertex="1" parent="OfoO1cSh_xcKWQXZHYi1-5">
          <mxGeometry y="52" width="160" height="26" as="geometry" />
        </mxCell>
        <UserObject label="Discord Command Line" treeRoot="1" id="OfoO1cSh_xcKWQXZHYi1-8">
          <mxCell style="whiteSpace=wrap;html=1;align=center;treeFolding=1;treeMoving=1;newEdgeStyle={&quot;edgeStyle&quot;:&quot;elbowEdgeStyle&quot;,&quot;startArrow&quot;:&quot;none&quot;,&quot;endArrow&quot;:&quot;none&quot;};" vertex="1" parent="1">
            <mxGeometry x="81" y="279" width="160" height="80" as="geometry" />
          </mxCell>
        </UserObject>
        <mxCell id="OfoO1cSh_xcKWQXZHYi1-9" value="Tasks" style="swimlane;fontStyle=0;childLayout=stackLayout;horizontal=1;startSize=26;fillColor=none;horizontalStack=0;resizeParent=1;resizeParentMax=0;resizeLast=0;collapsible=1;marginBottom=0;" vertex="1" parent="1">
          <mxGeometry x="401" y="279" width="160" height="78" as="geometry" />
        </mxCell>
        <mxCell id="OfoO1cSh_xcKWQXZHYi1-10" value="Item 1" style="text;strokeColor=none;fillColor=none;align=left;verticalAlign=top;spacingLeft=4;spacingRight=4;overflow=hidden;rotatable=0;points=[[0,0.5],[1,0.5]];portConstraint=eastwest;" vertex="1" parent="OfoO1cSh_xcKWQXZHYi1-9">
          <mxGeometry y="26" width="160" height="26" as="geometry" />
        </mxCell>
        <mxCell id="OfoO1cSh_xcKWQXZHYi1-11" value="Item 2" style="text;strokeColor=none;fillColor=none;align=left;verticalAlign=top;spacingLeft=4;spacingRight=4;overflow=hidden;rotatable=0;points=[[0,0.5],[1,0.5]];portConstraint=eastwest;" vertex="1" parent="OfoO1cSh_xcKWQXZHYi1-9">
          <mxGeometry y="52" width="160" height="26" as="geometry" />
        </mxCell>
        <mxCell id="OfoO1cSh_xcKWQXZHYi1-12" value="" style="curved=1;endArrow=classic;html=1;rounded=0;entryX=0;entryY=0.5;entryDx=0;entryDy=0;exitX=1;exitY=0;exitDx=0;exitDy=0;" edge="1" parent="1" source="OfoO1cSh_xcKWQXZHYi1-8" target="OfoO1cSh_xcKWQXZHYi1-3">
          <mxGeometry width="50" height="50" relative="1" as="geometry">
            <mxPoint x="221" y="249" as="sourcePoint" />
            <mxPoint x="271" y="199" as="targetPoint" />
            <Array as="points">
              <mxPoint x="271" y="249" />
            </Array>
          </mxGeometry>
        </mxCell>
        <mxCell id="OfoO1cSh_xcKWQXZHYi1-13" value="" style="curved=1;endArrow=classic;html=1;rounded=0;exitX=1;exitY=0.5;exitDx=0;exitDy=0;entryX=0;entryY=0.5;entryDx=0;entryDy=0;" edge="1" parent="1" source="OfoO1cSh_xcKWQXZHYi1-8" target="OfoO1cSh_xcKWQXZHYi1-10">
          <mxGeometry width="50" height="50" relative="1" as="geometry">
            <mxPoint x="281" y="389" as="sourcePoint" />
            <mxPoint x="331" y="339" as="targetPoint" />
            <Array as="points">
              <mxPoint x="291" y="319" />
            </Array>
          </mxGeometry>
        </mxCell>
        <mxCell id="OfoO1cSh_xcKWQXZHYi1-14" value="" style="curved=1;endArrow=classic;html=1;rounded=0;exitX=1;exitY=1;exitDx=0;exitDy=0;entryX=0;entryY=0.5;entryDx=0;entryDy=0;" edge="1" parent="1" source="OfoO1cSh_xcKWQXZHYi1-8" target="OfoO1cSh_xcKWQXZHYi1-6">
          <mxGeometry width="50" height="50" relative="1" as="geometry">
            <mxPoint x="301" y="469" as="sourcePoint" />
            <mxPoint x="351" y="499" as="targetPoint" />
            <Array as="points">
              <mxPoint x="271" y="399" />
            </Array>
          </mxGeometry>
        </mxCell>
        <UserObject label="Discord Command Line" treeRoot="1" id="OfoO1cSh_xcKWQXZHYi1-15">
          <mxCell style="whiteSpace=wrap;html=1;align=center;treeFolding=1;treeMoving=1;newEdgeStyle={&quot;edgeStyle&quot;:&quot;elbowEdgeStyle&quot;,&quot;startArrow&quot;:&quot;none&quot;,&quot;endArrow&quot;:&quot;none&quot;};" vertex="1" parent="1">
            <mxGeometry x="601" y="119" width="160" height="80" as="geometry" />
          </mxCell>
        </UserObject>
        <UserObject label="Discord Command Line" treeRoot="1" id="OfoO1cSh_xcKWQXZHYi1-16">
          <mxCell style="whiteSpace=wrap;html=1;align=center;treeFolding=1;treeMoving=1;newEdgeStyle={&quot;edgeStyle&quot;:&quot;elbowEdgeStyle&quot;,&quot;startArrow&quot;:&quot;none&quot;,&quot;endArrow&quot;:&quot;none&quot;};" vertex="1" parent="1">
            <mxGeometry x="601" y="439" width="160" height="80" as="geometry" />
          </mxCell>
        </UserObject>
        <mxCell id="OfoO1cSh_xcKWQXZHYi1-17" value="" style="curved=1;endArrow=classic;html=1;rounded=0;exitX=1;exitY=0.5;exitDx=0;exitDy=0;entryX=0;entryY=0.5;entryDx=0;entryDy=0;" edge="1" parent="1" source="OfoO1cSh_xcKWQXZHYi1-10" target="OfoO1cSh_xcKWQXZHYi1-1">
          <mxGeometry width="50" height="50" relative="1" as="geometry">
            <mxPoint x="631" y="339" as="sourcePoint" />
            <mxPoint x="681" y="289" as="targetPoint" />
            <Array as="points">
              <mxPoint x="621" y="319" />
            </Array>
          </mxGeometry>
        </mxCell>
      </root>
    </mxGraphModel>
  </diagram>
</mxfile>
